<mxfile host="65bd71144e">
    <diagram id="yHPUWDhn9yPkVKIJML2L" name="Page-1">
        <mxGraphModel dx="2475" dy="2382" grid="1" gridSize="10" guides="1" tooltips="1" connect="1" arrows="1" fold="1" page="1" pageScale="1" pageWidth="827" pageHeight="1169" math="0" shadow="0">
            <root>
                <mxCell id="0"/>
                <mxCell id="1" parent="0"/>
                <mxCell id="2" value="&lt;h4&gt;&lt;/h4&gt;&lt;h2 style=&quot;font-size: 35px&quot;&gt;&lt;/h2&gt;&lt;h3&gt;&lt;font style=&quot;font-size: 50px&quot;&gt;965 x100&lt;/font&gt;&lt;/h3&gt;" style="whiteSpace=wrap;html=1;fontFamily=Times New Roman;" vertex="1" parent="1">
                    <mxGeometry x="4" y="-1160" width="1650" height="100" as="geometry"/>
                </mxCell>
                <mxCell id="JKArBtGy7eyEAYIIITq1-2" value="Text" style="text;html=1;resizable=0;autosize=1;align=center;verticalAlign=middle;points=[];fillColor=none;strokeColor=none;rounded=0;fontFamily=Times New Roman;" vertex="1" parent="1">
                    <mxGeometry x="760" y="350" width="40" height="20" as="geometry"/>
                </mxCell>
                <mxCell id="JKArBtGy7eyEAYIIITq1-3" value="&lt;font style=&quot;font-size: 50px&quot;&gt;965 x 2012&lt;/font&gt;" style="whiteSpace=wrap;html=1;fontFamily=Helvetica;fontSize=35;" vertex="1" parent="1">
                    <mxGeometry y="-1053" width="1650" height="720" as="geometry"/>
                </mxCell>
                <mxCell id="JKArBtGy7eyEAYIIITq1-4" value="" style="whiteSpace=wrap;html=1;fontFamily=Helvetica;fontSize=50;" vertex="1" parent="1">
                    <mxGeometry y="-330" width="1650" height="1060" as="geometry"/>
                </mxCell>
                <mxCell id="JKArBtGy7eyEAYIIITq1-5" value="965 x 3675" style="text;html=1;resizable=0;autosize=1;align=center;verticalAlign=middle;points=[];fillColor=none;strokeColor=none;rounded=0;fontFamily=Helvetica;fontSize=50;" vertex="1" parent="1">
                    <mxGeometry x="650" y="265" width="260" height="70" as="geometry"/>
                </mxCell>
                <mxCell id="JKArBtGy7eyEAYIIITq1-6" value="965 x 550" style="whiteSpace=wrap;html=1;fontFamily=Helvetica;fontSize=50;" vertex="1" parent="1">
                    <mxGeometry x="4" y="730" width="1646" height="400" as="geometry"/>
                </mxCell>
                <mxCell id="JKArBtGy7eyEAYIIITq1-10" value="965 x 395" style="whiteSpace=wrap;html=1;fontFamily=Helvetica;fontSize=50;" vertex="1" parent="1">
                    <mxGeometry x="10" y="1140" width="1640" height="370" as="geometry"/>
                </mxCell>
            </root>
        </mxGraphModel>
    </diagram>
</mxfile>